<?xml version="1.0" encoding="utf-8"?>
<!-- Generator: Adobe Illustrator 22.0.1, SVG Export Plug-In . SVG Version: 6.00 Build 0)  -->
<svg version="1.1" id="Full" xmlns="http://www.w3.org/2000/svg" xmlns:xlink="http://www.w3.org/1999/xlink" x="0px" y="0px"
	 viewBox="0 0 531.6 109.2" style="enable-background:new 0 0 531.6 109.2;" xml:space="preserve">
<style type="text/css">
	.st0{enable-background:new    ;}
	.st1{fill:#939393;}
	.st2{fill:#43505D;}
</style>
<g>
	<title>Asset 1</title>
	<g id="Layer_2_2_">
		<g id="normal-1_1_">
			<g class="st0">
				<path class="st1" d="M55,60.3c0,12.1-9.5,20.9-21.4,20.9H0.5V1.7h26.6c12,0,21.6,8.8,21.6,20.9c0,8.2-4.2,14.4-10.7,17.8
					C47.6,42.3,55,49.8,55,60.3z M26.5,8.1H7.6v30.3h18.9c8.4,0,15-6.8,15-15.1S34.7,8.1,26.5,8.1z M47.7,59.6
					c0-8.3-6.7-15.1-15-15.1H7.6v30.3h25.1C41.1,74.7,47.7,67.8,47.7,59.6z"/>
				<path class="st1" d="M64.6,54.7c0-15.3,10.3-27.5,25.4-27.5c15.3,0,25.5,12.3,25.5,27.5S105.3,82.2,90,82.2
					C74.9,82.2,64.6,70,64.6,54.7z M108.7,54.7c0-11.9-7.2-21.3-18.6-21.3c-11.3,0-18.6,9.4-18.6,21.3C71.4,66.5,78.7,76,90,76
					C101.5,76,108.7,66.5,108.7,54.7z"/>
			</g>
			<g class="st0">
				<path class="st2" d="M166.2,41.9c0,18.9,13.2,29.7,29.6,29.7c4.3,0,8.6-1,12.4-2.6V48.1h-16.3V37.3h27.1v38.9
					c-6.7,4.1-14.8,6.9-23.3,6.9c-22.5,0-40.8-15.9-40.8-41.2c0-25.3,18.4-41.2,40.5-41.2c8.7,0,17,2.8,23.6,6.9v15.4
					c-5.4-6.7-14.2-10.7-23.2-10.7C179.4,12.2,166.2,23,166.2,41.9z"/>
				<path class="st2" d="M223.4,107V97c1.5,1.2,4,2,5.8,2c4.1,0,7.4-3.5,7.4-8.1V28.2h11.8v63.5c0,9.5-7.8,17.1-17.8,17.1
					C228,108.7,224.8,108,223.4,107z M235.3,11.6c0-4,3.3-7.2,7.2-7.2s7.2,3.2,7.2,7.2c0,3.9-3.3,7.1-7.2,7.1S235.3,15.5,235.3,11.6
					z"/>
				<path class="st2" d="M308,58.4h-37.5c1,8.5,5.6,13.7,14.3,13.7c5.8,0,9.2-1.8,13.6-8.6l8.2,5.7c-4.3,8.2-11.8,13-22.1,13
					c-16,0-25.4-11.4-25.4-27.4c0-15.9,9.5-27.7,25.4-27.7c15.4,0,23.8,11.5,23.8,28C308.3,56.2,308.3,57.3,308,58.4z M270.9,49.4
					h26.8c-1.1-7.6-5.4-12.2-13-12.2C276.8,37.2,272.2,41.9,270.9,49.4z"/>
				<path class="st2" d="M358.9,31.1l-5.6,8.4c-1.1-0.6-3.6-1.9-7.8-1.9c-7.2,0-14,6.1-14,15.3v28.4h-11.8v-53h10.7l0.6,7.4
					c3.8-5.1,9.2-8.5,15-8.5C352.6,27.2,355.8,28.4,358.9,31.1z"/>
				<path class="st2" d="M364.7,64.2V1.7h11.8l0.1,62.5c0,5.4,2.5,7.9,6.9,7.9c2.3,0,4.1-0.6,5.8-2.5l6.5,7.9
					c-2.9,3-7.1,4.7-12.6,4.7C371.8,82.2,364.7,74.9,364.7,64.2z"/>
				<path class="st2" d="M450,54.7c0,15.4-10.5,27.5-26.2,27.5c-5,0-9.3-1.2-13.1-3.4l-3.8,5.8h-5.8l5.7-8.6
					c-5.7-5.1-9.1-12.7-9.1-21.4c0-15.4,10.5-27.5,26.2-27.5c5,0,9.4,1.3,13.2,3.4l3.8-5.7h5.7l-5.6,8.6C446.7,38.4,450,46,450,54.7
					z M413,66.8l18.1-27.2c-2.1-1.3-4.6-2-7.3-2c-9.2,0-14.6,7.6-14.6,17.2C409.2,59.5,410.5,63.7,413,66.8z M438.5,54.7
					c0-4.7-1.3-8.9-3.7-12L416.6,70c2,1.3,4.4,1.9,7.2,1.9C432.9,71.9,438.5,64.2,438.5,54.7z"/>
				<path class="st2" d="M531,28.2l-18.1,53h-12.7l-7.6-21.5l-7.2,21.5h-12.6l-18.2-53h13.3l12,38.9l7.4-22.7l-5.7-16.2H493
					l12.8,39.1l12.1-39.1H531z"/>
			</g>
		</g>
	</g>
</g>
</svg>
