<?xml version="1.0" encoding="utf-8"?>
<!-- Generator: Adobe Illustrator 20.0.0, SVG Export Plug-In . SVG Version: 6.00 Build 0)  -->
<svg version="1.1" id="Full" xmlns="http://www.w3.org/2000/svg" xmlns:xlink="http://www.w3.org/1999/xlink" x="0px" y="0px"
	 viewBox="0 0 531.6 281.8" style="enable-background:new 0 0 531.6 281.8;" xml:space="preserve">
<style type="text/css">
	.st0{fill:#43505D;}
	.st1{fill:#939393;}
</style>
<g>
	<path class="st0" d="M150.8,127.6c0,19.7,13.8,31,30.8,31c4.5,0,8.9-1,12.9-2.8v-21.7h-17v-11.3h28.3v40.5
		c-6.9,4.3-15.5,7.1-24.3,7.1c-23.4,0-42.5-16.6-42.5-43s19.2-43,42.2-43c9.1,0,17.7,2.9,24.6,7.1v16c-5.6-6.9-14.8-11.1-24.2-11.1
		C164.7,96.6,150.8,107.9,150.8,127.6z"/>
	<path class="st0" d="M210.5,195.6v-10.5c1.5,1.2,4.2,2.1,6,2.1c4.3,0,7.7-3.7,7.7-8.4v-65.5h12.3v66.2c0,10-8.2,17.8-18.6,17.8
		C215.3,197.3,212,196.6,210.5,195.6z M222.9,96c0-4.2,3.4-7.5,7.5-7.5s7.5,3.3,7.5,7.5c0,4.1-3.4,7.4-7.5,7.4
		C226.4,103.3,222.9,100,222.9,96z"/>
	<path class="st0" d="M298.9,144.8h-39.1c1,8.8,5.9,14.2,14.9,14.2c6.1,0,9.6-1.8,14.2-8.9l8.5,6c-4.5,8.5-12.2,13.6-23.1,13.6
		c-16.7,0-26.5-11.9-26.5-28.6c0-16.6,10-28.8,26.5-28.8c16,0,24.8,12,24.8,29.2C299.1,142.5,299.1,143.7,298.9,144.8z M260,135.4
		h28c-1.1-8-5.6-12.7-13.6-12.7C266.2,122.7,261.5,127.6,260,135.4z"/>
	<path class="st0" d="M352,116.3l-5.8,8.7c-1.1-0.7-3.8-2-8.2-2c-7.5,0-14.6,6.4-14.6,15.9v29.6h-12.3v-55.3h11.1l0.7,7.7
		c4-5.3,9.6-8.8,15.7-8.8C345.4,112.2,348.7,113.5,352,116.3z"/>
	<path class="st0" d="M358,150.9V85.7h12.2l0.1,65.2c0,5.6,2.7,8.3,7.2,8.3c2.4,0,4.3-0.7,6-2.7l6.8,8.3c-3,3.1-7.4,4.9-13.1,4.9
		C365.5,169.7,358,162.1,358,150.9z"/>
	<path class="st0" d="M447,140.9c0,16-10.9,28.7-27.3,28.7c-5.2,0-9.7-1.2-13.7-3.5l-4,6h-6l6-8.9c-6-5.3-9.5-13.3-9.5-22.3
		c0-16,10.9-28.7,27.3-28.7c5.2,0,9.8,1.3,13.8,3.5l4-6h6l-5.9,8.9C443.6,123.9,447,131.9,447,140.9z M408.4,153.5l18.9-28.4
		c-2.2-1.3-4.7-2.1-7.6-2.1c-9.6,0-15.3,8-15.3,17.9C404.4,145.9,405.8,150.4,408.4,153.5z M435,140.9c0-4.9-1.3-9.3-3.9-12.5
		l-18.9,28.4c2.1,1.3,4.6,2,7.5,2C429.2,158.8,435,150.9,435,140.9z"/>
	<path class="st0" d="M531.6,113.3l-18.9,55.3h-13.3l-8-22.4l-7.5,22.4h-13.1l-19-55.3h13.9l12.5,40.5l7.7-23.7l-6-16.9h11.9
		l13.3,40.8l12.6-40.8h13.9V113.3z"/>
</g>
<g>
	<path class="st1" d="M56.8,148.8c0,12.6-10,21.7-22.3,21.7H0V87.6h27.7c12.5,0,22.6,9.1,22.6,21.7c0,8.5-4.4,15-11.1,18.6
		C49.2,130,56.8,137.8,56.8,148.8z M27.1,94.3H7.4v31.6h19.7c8.7,0,15.7-7.1,15.7-15.8S35.7,94.3,27.1,94.3z M49.3,148
		c0-8.6-6.9-15.8-15.7-15.8H7.4v31.6h26.2C42.3,163.9,49.3,156.6,49.3,148z"/>
	<path class="st1" d="M66.9,142.9c0-15.9,10.7-28.7,26.5-28.7c15.9,0,26.6,12.8,26.6,28.7s-10.7,28.7-26.6,28.7
		C77.6,171.7,66.9,158.8,66.9,142.9z M112.8,142.9c0-12.4-7.5-22.2-19.5-22.2c-11.8,0-19.5,9.8-19.5,22.2c0,12.2,7.6,22.2,19.5,22.2
		C105.3,165.2,112.8,155.2,112.8,142.9z"/>
</g>
</svg>
